<svg width="34" height="31" viewBox="0 0 34 31" fill="none" xmlns="http://www.w3.org/2000/svg">
<g id="mdi:robot">
<path id="Vector" d="M17.0052 2.58374C17.7567 2.58374 18.4773 2.85591 19.0087 3.34038C19.54 3.82485 19.8385 4.48193 19.8385 5.16707C19.8385 6.12291 19.2719 6.96249 18.4219 7.40166V9.04207H19.8385C22.4686 9.04207 24.9909 9.99468 26.8507 11.6903C28.7104 13.386 29.7552 15.6857 29.7552 18.0837H31.1719C31.5476 18.0837 31.9079 18.2198 32.1736 18.4621C32.4393 18.7043 32.5885 19.0328 32.5885 19.3754V23.2504C32.5885 23.593 32.4393 23.9215 32.1736 24.1638C31.9079 24.406 31.5476 24.5421 31.1719 24.5421H29.7552V25.8337C29.7552 26.5189 29.4567 27.176 28.9253 27.6604C28.394 28.1449 27.6733 28.4171 26.9219 28.4171H7.08854C6.33709 28.4171 5.61642 28.1449 5.08507 27.6604C4.55372 27.176 4.25521 26.5189 4.25521 25.8337V24.5421H2.83854C2.46282 24.5421 2.10248 24.406 1.83681 24.1638C1.57113 23.9215 1.42188 23.593 1.42188 23.2504V19.3754C1.42187 19.0328 1.57113 18.7043 1.83681 18.4621C2.10248 18.2198 2.46282 18.0837 2.83854 18.0837H4.25521C4.25521 15.6857 5.3 13.386 7.15973 11.6903C9.01947 9.99468 11.5418 9.04207 14.1719 9.04207H15.5885V7.40166C14.7385 6.96249 14.1719 6.12291 14.1719 5.16707C14.1719 4.48193 14.4704 3.82485 15.0017 3.34038C15.5331 2.85591 16.2538 2.58374 17.0052 2.58374ZM10.6302 16.7921C9.6909 16.7921 8.79006 17.1323 8.12587 17.7379C7.46168 18.3435 7.08854 19.1648 7.08854 20.0212C7.08854 20.8777 7.46168 21.699 8.12587 22.3046C8.79006 22.9102 9.6909 23.2504 10.6302 23.2504C11.5695 23.2504 12.4704 22.9102 13.1345 22.3046C13.7987 21.699 14.1719 20.8777 14.1719 20.0212C14.1719 19.1648 13.7987 18.3435 13.1345 17.7379C12.4704 17.1323 11.5695 16.7921 10.6302 16.7921ZM23.3802 16.7921C22.4409 16.7921 21.5401 17.1323 20.8759 17.7379C20.2117 18.3435 19.8385 19.1648 19.8385 20.0212C19.8385 20.8777 20.2117 21.699 20.8759 22.3046C21.5401 22.9102 22.4409 23.2504 23.3802 23.2504C24.3195 23.2504 25.2204 22.9102 25.8845 22.3046C26.5487 21.699 26.9219 20.8777 26.9219 20.0212C26.9219 19.1648 26.5487 18.3435 25.8845 17.7379C25.2204 17.1323 24.3195 16.7921 23.3802 16.7921Z" fill="#006B7F"/>
</g>
</svg>
