<svg width="24" height="24" viewBox="0 0 24 24" fill="none" xmlns="http://www.w3.org/2000/svg">
<path id="Vector" d="M11.9998 0C5.37254 0 0 5.37262 0 12C0 18.6278 5.37254 24 11.9998 24C18.6274 24 24 18.6278 24 12C24 5.37262 18.6275 0 11.9998 0ZM11.9998 22.5236C6.21027 22.5236 1.49998 17.7896 1.49998 12C1.49998 6.21033 6.21027 1.49995 11.9998 1.49995C17.7893 1.49995 22.5 6.21035 22.5 12C22.5 17.7896 17.7894 22.5236 11.9998 22.5236ZM10.8969 18.7612H12.7839V16.857H10.8969V18.7612ZM11.9777 5.2391C10.8789 5.2391 9.97373 5.53535 9.26275 6.12713C8.55176 6.71923 8.20601 7.90498 8.22364 8.88748L8.25139 8.94223H9.97261C9.97261 8.3561 10.168 7.51385 10.5587 7.2116C10.9491 6.90973 11.4223 6.7586 11.9781 6.7586C12.6186 6.7586 13.1109 6.9326 13.4563 7.28058C13.8013 7.62858 13.9734 8.1262 13.9734 8.7727C13.9734 9.31608 13.8459 9.77995 13.5898 10.1643C13.3329 10.5487 12.9024 11.0981 12.2987 11.8125C11.6758 12.3742 11.2911 12.8257 11.1448 13.1674C10.9982 13.5094 10.9221 14.1229 10.9165 15.0075H12.7202C12.7202 14.4525 12.7554 14.0434 12.8256 13.7809C12.8953 13.5187 13.0952 13.2225 13.4248 12.8929C14.1332 12.2096 14.702 11.5414 15.1329 10.8878C15.5626 10.2349 15.7779 9.51448 15.7779 8.72698C15.7779 7.62823 15.4456 6.7721 14.78 6.15898C14.114 5.54548 13.1799 5.2391 11.9777 5.2391Z" fill="#006B7F"/>
</svg>
