<svg width="18" height="17" viewBox="0 0 18 17" fill="none" xmlns="http://www.w3.org/2000/svg">
<g id="Group">
<path id="Vector" d="M3.6314 7.16571C5.9496 3.05524 7.1087 1 8.94467 1C10.7798 1 11.9397 3.05524 14.2579 7.16571L14.5471 7.67813C16.4737 11.0943 17.4373 12.8023 16.5666 14.0512C15.6959 15.3001 13.5413 15.3001 9.23385 15.3001H8.65549C4.34799 15.3001 2.19345 15.3001 1.32274 14.0512C0.452022 12.8023 1.41569 11.0943 3.34222 7.67813L3.6314 7.16571Z" stroke="#5D5D5D" stroke-width="1.5"/>
<path id="Vector_2" d="M8.94531 4.97266V8.9449" stroke="#5D5D5D" stroke-width="1.5" stroke-linecap="round"/>
<path id="Vector_3" d="M8.94289 12.1221C9.38165 12.1221 9.73733 11.7664 9.73733 11.3277C9.73733 10.8889 9.38165 10.5332 8.94289 10.5332C8.50412 10.5332 8.14844 10.8889 8.14844 11.3277C8.14844 11.7664 8.50412 12.1221 8.94289 12.1221Z" fill="black"/>
</g>
</svg>
