<svg width="32" height="32" viewBox="0 0 32 32" fill="none" xmlns="http://www.w3.org/2000/svg">
<path d="M28.075 8.92434C27.9814 8.83159 27.8705 8.75818 27.7486 8.7083C27.6266 8.65842 27.4961 8.63305 27.3643 8.63363C27.2326 8.63421 27.1022 8.66073 26.9807 8.71169C26.8592 8.76264 26.749 8.83702 26.6562 8.93059C26.5635 9.02415 26.4901 9.13507 26.4402 9.25701C26.3903 9.37895 26.3649 9.50951 26.3655 9.64126C26.3661 9.773 26.3926 9.90334 26.4436 10.0248C26.4945 10.1463 26.5689 10.2566 26.6625 10.3493C28.1593 11.8512 28.9999 13.8852 28.9999 16.0056C28.9999 18.126 28.1593 20.16 26.6625 21.6618C26.5684 21.7538 26.4936 21.8637 26.4425 21.9849C26.3915 22.1062 26.3652 22.2365 26.3652 22.3681C26.3652 22.4997 26.3915 22.6299 26.4425 22.7512C26.4936 22.8725 26.5684 22.9824 26.6625 23.0743C26.8491 23.2582 27.1005 23.3614 27.3625 23.3618C27.628 23.3607 27.883 23.2578 28.075 23.0743C29.9466 21.1954 30.9975 18.6514 30.9975 15.9993C30.9975 13.3473 29.9466 10.8033 28.075 8.92434Z" fill="#1C1C1C"/>
<path d="M19.4375 3.09934C19.2694 3.01825 19.082 2.98581 18.8964 3.00569C18.7109 3.02557 18.5346 3.09698 18.3875 3.21184L9.6625 9.99934H4C3.46957 9.99934 2.96086 10.2101 2.58579 10.5851C2.21071 10.9602 2 11.4689 2 11.9993V19.9993C2 20.5298 2.21071 21.0385 2.58579 21.4136C2.96086 21.7886 3.46957 21.9993 4 21.9993H9.6625L18.3875 28.7868C18.5629 28.9229 18.7781 28.9976 19 28.9993C19.1513 28.9975 19.3004 28.9634 19.4375 28.8993C19.6082 28.8197 19.7521 28.6923 19.8519 28.5326C19.9518 28.3729 20.0032 28.1877 20 27.9993V3.99934C19.9987 3.81197 19.9454 3.62863 19.8461 3.46973C19.7468 3.31084 19.6054 3.18262 19.4375 3.09934ZM4 11.9993H9V19.9993H4V11.9993Z" fill="#1C1C1C"/>
<path d="M23.125 12.4618C23.0309 12.5538 22.9561 12.6637 22.9051 12.7849C22.854 12.9062 22.8277 13.0365 22.8277 13.1681C22.8277 13.2997 22.854 13.4299 22.9051 13.5512C22.9561 13.6725 23.0309 13.7824 23.125 13.8743C23.6868 14.4389 24.0022 15.2029 24.0022 15.9993C24.0022 16.7958 23.6868 17.5598 23.125 18.1243C23.0309 18.2163 22.9561 18.3262 22.9051 18.4474C22.854 18.5687 22.8277 18.699 22.8277 18.8306C22.8277 18.9622 22.854 19.0924 22.9051 19.2137C22.9561 19.335 23.0309 19.4449 23.125 19.5368C23.2158 19.6302 23.3247 19.7038 23.4451 19.7533C23.5656 19.8028 23.6949 19.8269 23.825 19.8243C23.957 19.8272 24.0883 19.8031 24.2108 19.7537C24.3332 19.7043 24.4444 19.6305 24.5375 19.5368C25.4733 18.5974 25.9988 17.3254 25.9988 15.9993C25.9988 14.6733 25.4733 13.4013 24.5375 12.4618C24.35 12.2748 24.0961 12.1698 23.8313 12.1698C23.5665 12.1698 23.3125 12.2748 23.125 12.4618Z" fill="#1C1C1C"/>
</svg>
